PathFileType	4	(x/y/z)	S09_P20_T14
DataRate	CameraRate	NumFrames	NumMarkers	Units	OrigDataRate	OrigDataStartFrame	OrigNumFrames
240	240	7	51	mm	240	249	398
Frame#	Time	Sternum			R.Acromium			L.Acromium			Top.Head			R.ASIS			L.ASIS			R.PSIS			L.PSIS			R.Great.Tro			L.Great.Tro			R.Iliac.Crest			L.Iliac.Crest			V.Sacral			R.Thigh.Upper.Post			R.Thigh.Lower.Ant			R.Thigh.Lower.Post			R.Thigh.Upper.Ant			R.Knee.Lat			R.Knee.Med			R.Shank.Upper.Post			R.Shank.Lower.Ant			R.Shank.Lower.Post			R.Shank.Upper.Ant			R.Ankle.Lat			R.Ankle.Med			R.Heel.Upper			R.Heel.Med			R.Heel.Lat			R.Toe.Lat			R.Toe.Med			R.Toe.Tip			L.Thigh.Upper.Post			L.Thigh.Lower.Ant			L.Thigh.Lower.Post			L.Thigh.Upper.Ant			L.Knee.Lat			L.Knee.Med			L.Shank.Upper.Post			L.Shank.Lower.Ant			L.Shank.Lower.Post			L.Shank.Upper.Ant			L.Ankle.Lat			L.Ankle.Med			L.Heel.Upper			L.Heel.Med			L.Heel.Lat			L.Toe.Lat			L.Toe.Med			L.Toe.Tip			Cervical.Spine			Back			
		X1	Y1	Z1	X2	Y2	Z2	X3	Y3	Z3	X4	Y4	Z4	X5	Y5	Z5	X6	Y6	Z6	X7	Y7	Z7	X8	Y8	Z8	X9	Y9	Z9	X10	Y10	Z10	X11	Y11	Z11	X12	Y12	Z12	X13	Y13	Z13	X14	Y14	Z14	X15	Y15	Z15	X16	Y16	Z16	X17	Y17	Z17	X18	Y18	Z18	X19	Y19	Z19	X20	Y20	Z20	X21	Y21	Z21	X22	Y22	Z22	X23	Y23	Z23	X24	Y24	Z24	X25	Y25	Z25	X26	Y26	Z26	X27	Y27	Z27	X28	Y28	Z28	X29	Y29	Z29	X30	Y30	Z30	X31	Y31	Z31	X32	Y32	Z32	X33	Y33	Z33	X34	Y34	Z34	X35	Y35	Z35	X36	Y36	Z36	X37	Y37	Z37	X38	Y38	Z38	X39	Y39	Z39	X40	Y40	Z40	X41	Y41	Z41	X42	Y42	Z42	X43	Y43	Z43	X44	Y44	Z44	X45	Y45	Z45	X46	Y46	Z46	X47	Y47	Z47	X48	Y48	Z48	X49	Y49	Z49	X50	Y50	Z50	X51	Y51	Z51	

249	1.0333	-4.8869	1165.1	335.21	-139.2	1422.2	485.79	-149.18	1412.9	172.48	-117.37	1724	328.31	-66.341	997.99	450.39	-66.304	1004.2	204.63	-285.14	1026.4	369.98	-280.9	1023.4	280.93	-160.97	918.39	523.4	-131.45	911.81	136.45	-150.56	1080.2	491.2	-174.74	1094.9	169.31	-302.96	990.5	322.58	-209.28	675.51	490.43	-155.42	562.61	456.12	-230.47	586.93	461.81	-142.58	649.26	482.94	-201.49	489.32	445.86	-203.46	483.73	324.62	-353.93	374.11	449.49	-328.53	286.8	438.02	-396.53	311.45	438.72	-292.79	350.61	450.58	-478.52	142.04	417.07	-443.46	138.52	332.98	-547.61	144.52	363.84	-548.11	111.02	335.29	-557.91	115.88	399.36	-419.99	47.025	458.89	-365.9	38.073	357.99	-321.17	42.594	406.73	-121.9	649.27	186.62	-15.61	579.95	184.64	-81.024	568.74	206.57	-54.468	657.29	160.96	-4.9578	502.92	196.64	13.441	522.85	328.6	-14.068	364.19	189.96	72.261	295.2	198.98	7.7178	290.21	195.3	49.783	369.47	194.3	91.349	104.56	215.93	112.16	106.51	307	38.452	61.881	272.17	56.896	42.293	304.69	42.711	32.453	245.02	206.43	64.096	183.38	243.86	87.245	287.24	284.31	115.54	223.94	-225.03	1462.3	340.8	-269.75	1196.6	333.32
250	1.0375	0.78279	1165	334.44	-133.97	1422	485.08	-143.44	1412.9	171.73	-112	1723.9	327.85	-60.56	997.91	449.72	-60.437	1004.4	204.03	-279.39	1025.7	369.26	-275.09	1023	280.17	-154.75	917.83	522.61	-124.93	912.1	135.66	-144.98	1079.9	490.45	-168.77	1095	168.59	-297.04	989.85	321.77	-201.3	674.53	490.11	-146.69	561.89	456.14	-221.9	585.73	461.63	-134.43	648.69	482.71	-192.7	488.31	446.1	-194.36	482.49	324.96	-346.79	375.35	449.66	-322.73	287.6	438.39	-390.3	313.32	438.81	-286.07	350.87	450.9	-474.99	145.08	417.28	-439.59	140.93	333.33	-543.46	149.37	363.6	-544.61	116.1	334.79	-554.73	120.85	398.82	-419.39	48.063	458.65	-365.18	38.143	358.17	-321.07	42.341	406.87	-115.56	649.48	185.87	-9.2073	580.26	184.32	-74.743	568.95	205.92	-47.998	657.59	160.59	1.2611	503.11	196.27	19.316	523.07	328.26	-9.0587	364.48	189.66	76.545	294.64	198.94	11.972	290.29	195.08	54.832	369.14	194.16	93.046	103.96	215.89	113.72	105.54	307.06	39.147	62.423	272.01	57.233	42.509	304.67	42.974	32.885	244.97	207.45	61.849	183.68	245.15	84.317	287.5	286.26	111.89	224.23	-219.63	1462.1	339.98	-264.14	1196.4	332.37
251	1.0417	6.4486	1165	333.68	-128.74	1421.8	484.36	-137.71	1413	170.97	-106.62	1723.8	327.38	-54.79	997.89	449.04	-54.597	1004.7	203.43	-273.65	1025.1	368.53	-269.29	1022.8	279.4	-148.49	917.31	521.8	-118.47	912.47	134.83	-139.41	1079.6	489.7	-162.8	1095.1	167.85	-291.13	989.26	320.94	-193.19	673.59	489.84	-137.79	561.22	456.24	-213.17	584.56	461.5	-126.15	648.19	482.53	-183.71	487.33	446.42	-184.99	481.24	325.38	-339.4	376.67	449.86	-316.68	288.5	438.83	-383.81	315.28	438.92	-279.13	351.21	451.29	-471.19	148.25	417.53	-435.43	143.43	333.74	-538.92	154.43	363.37	-540.74	121.43	334.28	-551.21	126.06	398.26	-418.7	49.219	458.4	-364.38	38.262	358.35	-320.95	42.086	407.02	-109.29	649.76	185.06	-2.874	580.64	183.93	-68.523	569.23	205.19	-41.598	657.95	160.15	7.4326	503.36	195.84	25.089	523.33	327.88	-4.1128	364.83	189.26	80.752	294.15	198.82	16.157	290.44	194.76	59.808	368.86	193.94	94.658	103.43	215.79	115.21	104.68	307.04	39.793	62.953	271.81	57.538	42.756	304.62	43.218	33.309	244.9	208.39	59.711	183.9	246.36	81.539	287.68	288.12	108.36	224.42	-214.23	1462	339.17	-258.53	1196.2	331.42
252	1.0458	12.107	1165.1	332.94	-123.53	1421.7	483.65	-131.98	1413.1	170.23	-101.24	1723.8	326.92	-49.036	997.92	448.35	-48.787	1005	202.82	-267.92	1024.5	367.81	-263.52	1022.6	278.64	-142.21	916.83	520.98	-112.08	912.95	133.97	-133.85	1079.4	488.93	-156.82	1095.4	167.11	-285.23	988.74	320.11	-184.98	672.69	489.61	-128.73	560.61	456.43	-204.29	583.41	461.44	-117.76	647.75	482.42	-174.53	486.41	446.82	-175.35	480	325.88	-331.75	378.06	450.09	-310.4	289.49	439.34	-377.07	317.33	439.05	-271.94	351.63	451.76	-467.1	151.53	417.82	-430.96	146.01	334.21	-533.97	159.69	363.14	-536.47	126.99	333.75	-547.35	131.51	397.67	-417.91	50.5	458.13	-363.5	38.441	358.55	-320.79	41.83	407.18	-103.07	650.1	184.18	3.3882	581.08	183.48	-62.366	569.58	204.4	-35.27	658.38	159.65	13.551	503.67	195.36	30.773	523.62	327.46	0.75848	365.24	188.77	84.869	293.72	198.62	20.26	290.65	194.36	64.7	368.65	193.65	96.183	102.96	215.64	116.63	103.94	306.95	40.392	63.466	271.6	57.814	43.025	304.54	43.445	33.721	244.81	209.27	57.691	184.05	247.5	78.922	287.8	289.88	104.97	224.55	-208.85	1461.9	338.36	-252.93	1196.1	330.47
253	1.05	17.756	1165.2	332.21	-118.32	1421.6	482.94	-126.26	1413.2	169.49	-95.865	1723.8	326.46	-43.299	998.01	447.63	-43.007	1005.4	202.19	-262.21	1024	367.09	-257.78	1022.4	277.88	-135.89	916.39	520.15	-105.78	913.51	133.09	-128.32	1079.2	488.15	-150.83	1095.7	166.37	-279.34	988.28	319.28	-176.67	671.83	489.44	-119.54	560.06	456.7	-195.27	582.3	461.44	-109.27	647.38	482.37	-165.17	485.53	447.29	-165.46	478.76	326.46	-323.85	379.52	450.34	-303.87	290.57	439.92	-370.05	319.46	439.21	-264.51	352.12	452.31	-462.71	154.92	418.15	-426.18	148.68	334.72	-528.59	165.14	362.92	-531.79	132.77	333.21	-543.1	137.19	397.07	-417	51.916	457.85	-362.51	38.692	358.76	-320.56	41.574	407.34	-96.927	650.5	183.24	9.5751	581.57	182.97	-56.278	569.98	203.55	-29.019	658.86	159.09	19.606	504.02	194.84	36.38	523.95	327	5.5432	365.7	188.2	88.885	293.36	198.36	24.27	290.92	193.88	69.494	368.49	193.29	97.62	102.53	215.43	117.97	103.3	306.8	40.949	63.957	271.38	58.068	43.309	304.45	43.66	34.117	244.71	210.09	55.796	184.14	248.57	76.472	287.86	291.53	101.73	224.62	-203.46	1461.9	337.55	-247.35	1196	329.52
254	1.0542	23.391	1165.4	331.49	-113.13	1421.6	482.23	-120.55	1413.4	168.76	-90.482	1723.9	326	-37.58	998.15	446.9	-37.26	1005.9	201.56	-256.51	1023.5	366.37	-252.06	1022.4	277.14	-129.56	915.99	519.3	-99.579	914.14	132.19	-122.8	1079.1	487.37	-144.85	1096.1	165.64	-273.47	987.88	318.45	-168.28	671.02	489.32	-110.23	559.59	457.06	-186.14	581.23	461.51	-100.69	647.08	482.39	-155.64	484.72	447.84	-155.32	477.55	327.12	-315.7	381.04	450.63	-297.08	291.73	440.56	-362.78	321.66	439.39	-256.83	352.69	452.93	-458.01	158.41	418.52	-421.09	151.41	335.29	-522.78	170.75	362.72	-526.7	138.75	332.68	-538.47	143.07	396.47	-415.93	53.477	457.57	-361.4	39.028	358.98	-320.24	41.321	407.51	-90.857	650.95	182.25	15.679	582.1	182.4	-50.267	570.43	202.64	-22.849	659.39	158.47	25.583	504.42	194.28	41.92	524.31	326.49	10.229	366.2	187.54	92.79	293.04	198.04	28.178	291.24	193.32	74.178	368.36	192.88	98.969	102.15	215.19	119.24	102.75	306.6	41.467	64.422	271.14	58.3	43.6	304.33	43.866	34.491	244.59	210.84	54.033	184.17	249.56	74.192	287.88	293.07	98.666	224.64	-198.09	1461.9	336.74	-241.78	1196.1	328.57
255	1.0583	29.009	1165.7	330.79	-107.94	1421.6	481.53	-114.84	1413.7	168.04	-85.095	1724	325.54	-31.882	998.33	446.16	-31.544	1006.4	200.91	-250.84	1023.1	365.67	-246.38	1022.5	276.41	-123.21	915.64	518.44	-93.493	914.84	131.28	-117.31	1079.1	486.59	-138.88	1096.5	164.9	-267.62	987.55	317.64	-159.84	670.25	489.25	-100.82	559.19	457.51	-176.92	580.21	461.64	-92.059	646.86	482.49	-145.95	483.97	448.45	-144.96	476.35	327.85	-307.29	382.62	450.94	-290.05	292.98	441.27	-355.23	323.93	439.6	-248.92	353.34	453.61	-452.98	162	418.93	-415.67	154.21	335.9	-516.53	176.5	362.53	-521.17	144.9	332.15	-533.43	149.15	395.87	-414.69	55.189	457.27	-360.14	39.462	359.21	-319.8	41.074	407.68	-84.87	651.44	181.21	21.689	582.67	181.79	-44.342	570.92	201.69	-16.769	659.96	157.8	31.465	504.84	193.69	47.4	524.72	325.94	14.804	366.72	186.81	96.573	292.77	197.67	31.972	291.59	192.69	78.74	368.27	192.41	100.23	101.82	214.92	120.43	102.29	306.37	41.948	64.858	270.91	58.513	43.893	304.21	44.062	34.844	244.46	211.54	52.404	184.16	250.48	72.08	287.87	294.51	95.771	224.63	-192.72	1462	335.94	-236.22	1196.1	327.63
